<svg t="1582272941192" class="icon" viewBox="0 0 1024 1024" version="1.1" xmlns="http://www.w3.org/2000/svg" p-id="10435" width="128" height="128"><path d="M510.464 6.656C230.912 6.656 4.096 233.472 4.096 513.024c0 279.552 226.816 506.368 506.368 506.368s506.368-226.816 506.368-506.368c0.512-279.552-226.304-506.368-506.368-506.368z m224.768 630.272s-15.872 43.52-45.568 82.944c0 0 52.736 17.92 48.128 64.512 0 0 1.536 51.712-112.128 48.128 0 0-80.384-6.144-104.448-39.936h-20.992c-24.064 33.792-104.448 39.936-104.448 39.936-114.176 3.584-112.128-48.128-112.128-48.128-4.608-46.592 48.128-64.512 48.128-64.512-29.184-39.424-45.568-82.944-45.568-82.944-71.168 115.2-64-15.872-64-15.872C235.52 543.232 291.84 492.544 291.84 492.544 283.648 421.888 312.832 409.6 312.832 409.6 318.976 190.976 506.88 195.072 510.464 195.072c4.096 0 191.488-4.096 197.632 214.528 0 0 29.184 12.288 21.504 82.944 0 0 56.32 50.688 69.632 128.512 0 0 7.168 131.072-64 15.872z" fill="#68BEF8" p-id="10436"></path></svg>